<mxfile host="app.diagrams.net" modified="2024-04-05T13:17:03.801Z" agent="Mozilla/5.0 (Macintosh; Intel Mac OS X 10_15_7) AppleWebKit/537.36 (KHTML, like Gecko) Chrome/123.0.0.0 Safari/537.36" etag="Zyih8ObU5ZY6N1vSxaoZ" version="24.2.1" type="device">
  <diagram name="第 1 页" id="fCLSSuLvtkAczv2RtAyX">
    <mxGraphModel dx="910" dy="761" grid="1" gridSize="10" guides="1" tooltips="1" connect="1" arrows="1" fold="1" page="1" pageScale="1" pageWidth="827" pageHeight="1169" math="0" shadow="0">
      <root>
        <mxCell id="0" />
        <mxCell id="1" parent="0" />
        <mxCell id="9" value="" style="rounded=0;whiteSpace=wrap;html=1;" parent="1" vertex="1">
          <mxGeometry x="20" y="170" width="660" height="375" as="geometry" />
        </mxCell>
        <mxCell id="T1HbW7kIzKbHg_8XA1An-28" style="edgeStyle=orthogonalEdgeStyle;rounded=0;orthogonalLoop=1;jettySize=auto;html=1;entryX=0;entryY=0.5;entryDx=0;entryDy=0;" parent="1" edge="1">
          <mxGeometry relative="1" as="geometry">
            <mxPoint x="80" y="270" as="sourcePoint" />
            <mxPoint x="170" y="269.9999999999999" as="targetPoint" />
          </mxGeometry>
        </mxCell>
        <mxCell id="T1HbW7kIzKbHg_8XA1An-34" value="提问" style="edgeLabel;html=1;align=center;verticalAlign=middle;resizable=0;points=[];" parent="T1HbW7kIzKbHg_8XA1An-28" vertex="1" connectable="0">
          <mxGeometry x="-0.0379" y="3" relative="1" as="geometry">
            <mxPoint as="offset" />
          </mxGeometry>
        </mxCell>
        <mxCell id="T1HbW7kIzKbHg_8XA1An-1" value="使用者" style="shape=umlActor;verticalLabelPosition=bottom;verticalAlign=top;html=1;outlineConnect=0;" parent="1" vertex="1">
          <mxGeometry x="40" y="261" width="30" height="60" as="geometry" />
        </mxCell>
        <mxCell id="T1HbW7kIzKbHg_8XA1An-39" style="edgeStyle=orthogonalEdgeStyle;rounded=0;orthogonalLoop=1;jettySize=auto;html=1;exitX=0;exitY=0.75;exitDx=0;exitDy=0;" parent="1" source="T1HbW7kIzKbHg_8XA1An-8" edge="1">
          <mxGeometry relative="1" as="geometry">
            <mxPoint x="80" y="307.625" as="targetPoint" />
          </mxGeometry>
        </mxCell>
        <mxCell id="T1HbW7kIzKbHg_8XA1An-40" value="回答" style="edgeLabel;html=1;align=center;verticalAlign=middle;resizable=0;points=[];" parent="T1HbW7kIzKbHg_8XA1An-39" vertex="1" connectable="0">
          <mxGeometry x="0.0764" y="-2" relative="1" as="geometry">
            <mxPoint as="offset" />
          </mxGeometry>
        </mxCell>
        <mxCell id="T1HbW7kIzKbHg_8XA1An-8" value="&lt;b style=&quot;font-size: 14px;&quot;&gt;前端&lt;br&gt;&lt;/b&gt;&lt;br&gt;Streamlit" style="rounded=1;whiteSpace=wrap;html=1;" parent="1" vertex="1">
          <mxGeometry x="170" y="255" width="100" height="70" as="geometry" />
        </mxCell>
        <mxCell id="T1HbW7kIzKbHg_8XA1An-9" value="&lt;br&gt;&lt;div style=&quot;text-align: justify;&quot;&gt;&lt;/div&gt;" style="rounded=1;whiteSpace=wrap;html=1;sketch=0;" parent="1" vertex="1">
          <mxGeometry x="330" y="200" width="330" height="330" as="geometry" />
        </mxCell>
        <mxCell id="T1HbW7kIzKbHg_8XA1An-10" value="&lt;b&gt;&lt;font style=&quot;font-size: 14px;&quot;&gt;后端&lt;/font&gt;&lt;/b&gt;" style="text;html=1;strokeColor=none;fillColor=none;align=center;verticalAlign=middle;whiteSpace=wrap;rounded=0;" parent="1" vertex="1">
          <mxGeometry x="465" y="200" width="60" height="30" as="geometry" />
        </mxCell>
        <mxCell id="3" style="edgeStyle=orthogonalEdgeStyle;rounded=0;orthogonalLoop=1;jettySize=auto;html=1;entryX=0.5;entryY=0;entryDx=0;entryDy=0;" parent="1" source="T1HbW7kIzKbHg_8XA1An-11" target="T1HbW7kIzKbHg_8XA1An-19" edge="1">
          <mxGeometry relative="1" as="geometry" />
        </mxCell>
        <mxCell id="T1HbW7kIzKbHg_8XA1An-11" value="" style="rounded=1;whiteSpace=wrap;html=1;" parent="1" vertex="1">
          <mxGeometry x="380" y="240" width="240" height="100" as="geometry" />
        </mxCell>
        <mxCell id="T1HbW7kIzKbHg_8XA1An-32" style="edgeStyle=orthogonalEdgeStyle;rounded=0;orthogonalLoop=1;jettySize=auto;html=1;" parent="1" edge="1">
          <mxGeometry relative="1" as="geometry">
            <mxPoint x="270" y="299" as="targetPoint" />
            <mxPoint x="380" y="299" as="sourcePoint" />
          </mxGeometry>
        </mxCell>
        <mxCell id="T1HbW7kIzKbHg_8XA1An-33" value="Respond" style="edgeLabel;html=1;align=center;verticalAlign=middle;resizable=0;points=[];" parent="T1HbW7kIzKbHg_8XA1An-32" vertex="1" connectable="0">
          <mxGeometry x="0.0631" y="1" relative="1" as="geometry">
            <mxPoint as="offset" />
          </mxGeometry>
        </mxCell>
        <mxCell id="T1HbW7kIzKbHg_8XA1An-13" value="&lt;span style=&quot;font-size: 13px;&quot;&gt;&lt;b&gt;对话交互处理&lt;br&gt;&lt;/b&gt;&lt;/span&gt;&lt;br&gt;Python, LangChain,&lt;br&gt;OpenAI" style="text;html=1;strokeColor=none;fillColor=none;align=center;verticalAlign=middle;whiteSpace=wrap;rounded=0;" parent="1" vertex="1">
          <mxGeometry x="444" y="261" width="130" height="55" as="geometry" />
        </mxCell>
        <mxCell id="T1HbW7kIzKbHg_8XA1An-19" value="" style="rounded=1;whiteSpace=wrap;html=1;" parent="1" vertex="1">
          <mxGeometry x="380" y="370" width="240" height="110" as="geometry" />
        </mxCell>
        <mxCell id="T1HbW7kIzKbHg_8XA1An-20" value="&lt;b&gt;向量数据库&lt;/b&gt;&lt;br&gt;Pinecone" style="shape=cylinder3;whiteSpace=wrap;html=1;boundedLbl=1;backgroundOutline=1;size=15;" parent="1" vertex="1">
          <mxGeometry x="390" y="380.5" width="82" height="79" as="geometry" />
        </mxCell>
        <mxCell id="T1HbW7kIzKbHg_8XA1An-21" value="&lt;b&gt;&lt;font style=&quot;font-size: 13px;&quot;&gt;用户发言&lt;/font&gt;&lt;/b&gt;" style="text;html=1;strokeColor=none;fillColor=none;align=center;verticalAlign=middle;whiteSpace=wrap;rounded=0;" parent="1" vertex="1">
          <mxGeometry x="490" y="410" width="110" height="30" as="geometry" />
        </mxCell>
        <mxCell id="T1HbW7kIzKbHg_8XA1An-29" style="edgeStyle=orthogonalEdgeStyle;rounded=0;orthogonalLoop=1;jettySize=auto;html=1;exitX=1;exitY=0.25;exitDx=0;exitDy=0;" parent="1" source="T1HbW7kIzKbHg_8XA1An-8" edge="1">
          <mxGeometry relative="1" as="geometry">
            <mxPoint x="380" y="275" as="targetPoint" />
          </mxGeometry>
        </mxCell>
        <mxCell id="T1HbW7kIzKbHg_8XA1An-30" value="Request" style="edgeLabel;html=1;align=center;verticalAlign=middle;resizable=0;points=[];" parent="T1HbW7kIzKbHg_8XA1An-29" vertex="1" connectable="0">
          <mxGeometry x="-0.0305" relative="1" as="geometry">
            <mxPoint as="offset" />
          </mxGeometry>
        </mxCell>
        <mxCell id="10" value="&lt;b&gt;&lt;font style=&quot;font-size: 14px;&quot;&gt;对话交互模块&lt;/font&gt;&lt;/b&gt;" style="text;html=1;strokeColor=none;fillColor=none;align=center;verticalAlign=middle;whiteSpace=wrap;rounded=0;" parent="1" vertex="1">
          <mxGeometry x="300" y="170" width="100" height="30" as="geometry" />
        </mxCell>
      </root>
    </mxGraphModel>
  </diagram>
</mxfile>
